<mxfile host="app.diagrams.net" modified="2023-05-29T11:00:28.391Z" agent="Mozilla/5.0 (Windows NT 10.0; Win64; x64) AppleWebKit/537.36 (KHTML, like Gecko) Chrome/113.0.0.0 Safari/537.36 Edg/113.0.1774.50" etag="bFTWPdOffdO7JnfqIeGI" version="21.3.2" type="device">
  <diagram name="Page-1" id="wuKPKg8n7fOWSqLQgW6j">
    <mxGraphModel dx="1400" dy="786" grid="0" gridSize="10" guides="1" tooltips="1" connect="1" arrows="1" fold="1" page="1" pageScale="1" pageWidth="827" pageHeight="1169" math="0" shadow="0">
      <root>
        <mxCell id="0" />
        <mxCell id="1" parent="0" />
        <mxCell id="KYZTzPVHc1yOyD898JZF-130" style="edgeStyle=orthogonalEdgeStyle;rounded=0;orthogonalLoop=1;jettySize=auto;html=1;" edge="1" parent="1" source="KYZTzPVHc1yOyD898JZF-1" target="KYZTzPVHc1yOyD898JZF-3">
          <mxGeometry relative="1" as="geometry">
            <Array as="points">
              <mxPoint x="380" y="134" />
              <mxPoint x="249" y="134" />
            </Array>
          </mxGeometry>
        </mxCell>
        <mxCell id="KYZTzPVHc1yOyD898JZF-1" value="clr" style="rounded=0;whiteSpace=wrap;html=1;" vertex="1" parent="1">
          <mxGeometry x="320" y="60" width="120" height="60" as="geometry" />
        </mxCell>
        <mxCell id="KYZTzPVHc1yOyD898JZF-135" style="edgeStyle=orthogonalEdgeStyle;rounded=0;orthogonalLoop=1;jettySize=auto;html=1;" edge="1" parent="1" source="KYZTzPVHc1yOyD898JZF-2" target="KYZTzPVHc1yOyD898JZF-61">
          <mxGeometry relative="1" as="geometry" />
        </mxCell>
        <mxCell id="KYZTzPVHc1yOyD898JZF-2" value="DXval, busy" style="rounded=0;whiteSpace=wrap;html=1;" vertex="1" parent="1">
          <mxGeometry x="488" y="345" width="120" height="60" as="geometry" />
        </mxCell>
        <mxCell id="KYZTzPVHc1yOyD898JZF-131" style="edgeStyle=orthogonalEdgeStyle;rounded=0;orthogonalLoop=1;jettySize=auto;html=1;" edge="1" parent="1" source="KYZTzPVHc1yOyD898JZF-3" target="KYZTzPVHc1yOyD898JZF-10">
          <mxGeometry relative="1" as="geometry" />
        </mxCell>
        <mxCell id="KYZTzPVHc1yOyD898JZF-139" style="edgeStyle=orthogonalEdgeStyle;rounded=0;orthogonalLoop=1;jettySize=auto;html=1;entryX=0.5;entryY=0;entryDx=0;entryDy=0;" edge="1" parent="1" source="KYZTzPVHc1yOyD898JZF-3" target="KYZTzPVHc1yOyD898JZF-1">
          <mxGeometry relative="1" as="geometry">
            <Array as="points">
              <mxPoint x="166" y="179" />
              <mxPoint x="166" y="40" />
              <mxPoint x="380" y="40" />
            </Array>
          </mxGeometry>
        </mxCell>
        <mxCell id="KYZTzPVHc1yOyD898JZF-3" value="enRx" style="rhombus;whiteSpace=wrap;html=1;" vertex="1" parent="1">
          <mxGeometry x="219" y="149" width="60" height="60" as="geometry" />
        </mxCell>
        <mxCell id="KYZTzPVHc1yOyD898JZF-134" style="edgeStyle=orthogonalEdgeStyle;rounded=0;orthogonalLoop=1;jettySize=auto;html=1;" edge="1" parent="1" source="KYZTzPVHc1yOyD898JZF-8" target="KYZTzPVHc1yOyD898JZF-2">
          <mxGeometry relative="1" as="geometry" />
        </mxCell>
        <mxCell id="KYZTzPVHc1yOyD898JZF-141" style="edgeStyle=orthogonalEdgeStyle;rounded=0;orthogonalLoop=1;jettySize=auto;html=1;entryX=0.5;entryY=0;entryDx=0;entryDy=0;" edge="1" parent="1" source="KYZTzPVHc1yOyD898JZF-8" target="KYZTzPVHc1yOyD898JZF-1">
          <mxGeometry relative="1" as="geometry">
            <Array as="points">
              <mxPoint x="659" y="278" />
              <mxPoint x="659" y="40" />
              <mxPoint x="380" y="40" />
            </Array>
          </mxGeometry>
        </mxCell>
        <mxCell id="KYZTzPVHc1yOyD898JZF-8" value="eq5" style="rhombus;whiteSpace=wrap;html=1;" vertex="1" parent="1">
          <mxGeometry x="518" y="248" width="60" height="60" as="geometry" />
        </mxCell>
        <mxCell id="KYZTzPVHc1yOyD898JZF-132" style="edgeStyle=orthogonalEdgeStyle;rounded=0;orthogonalLoop=1;jettySize=auto;html=1;" edge="1" parent="1" source="KYZTzPVHc1yOyD898JZF-10" target="KYZTzPVHc1yOyD898JZF-56">
          <mxGeometry relative="1" as="geometry" />
        </mxCell>
        <mxCell id="KYZTzPVHc1yOyD898JZF-10" value="Wr, cenable, busy" style="rounded=0;whiteSpace=wrap;html=1;" vertex="1" parent="1">
          <mxGeometry x="189" y="248" width="120" height="60" as="geometry" />
        </mxCell>
        <mxCell id="KYZTzPVHc1yOyD898JZF-138" style="edgeStyle=orthogonalEdgeStyle;rounded=0;orthogonalLoop=1;jettySize=auto;html=1;entryX=0.5;entryY=0;entryDx=0;entryDy=0;" edge="1" parent="1" source="KYZTzPVHc1yOyD898JZF-12" target="KYZTzPVHc1yOyD898JZF-1">
          <mxGeometry relative="1" as="geometry">
            <Array as="points">
              <mxPoint x="659" y="664" />
              <mxPoint x="659" y="40" />
              <mxPoint x="380" y="40" />
            </Array>
          </mxGeometry>
        </mxCell>
        <mxCell id="KYZTzPVHc1yOyD898JZF-143" style="edgeStyle=orthogonalEdgeStyle;rounded=0;orthogonalLoop=1;jettySize=auto;html=1;entryX=0.5;entryY=0;entryDx=0;entryDy=0;" edge="1" parent="1" source="KYZTzPVHc1yOyD898JZF-12" target="KYZTzPVHc1yOyD898JZF-55">
          <mxGeometry relative="1" as="geometry">
            <Array as="points">
              <mxPoint x="453" y="664" />
              <mxPoint x="453" y="529" />
              <mxPoint x="548" y="529" />
            </Array>
          </mxGeometry>
        </mxCell>
        <mxCell id="KYZTzPVHc1yOyD898JZF-12" value="accept" style="rhombus;whiteSpace=wrap;html=1;" vertex="1" parent="1">
          <mxGeometry x="518" y="634" width="60" height="60" as="geometry" />
        </mxCell>
        <mxCell id="KYZTzPVHc1yOyD898JZF-22" value="NOT_BUSY" style="text;html=1;strokeColor=none;fillColor=none;align=center;verticalAlign=middle;whiteSpace=wrap;rounded=0;" vertex="1" parent="1">
          <mxGeometry x="463" y="80" width="110" height="20" as="geometry" />
        </mxCell>
        <mxCell id="KYZTzPVHc1yOyD898JZF-23" value="COUNT" style="text;html=1;strokeColor=none;fillColor=none;align=center;verticalAlign=middle;whiteSpace=wrap;rounded=0;" vertex="1" parent="1">
          <mxGeometry x="298" y="263" width="100" height="30" as="geometry" />
        </mxCell>
        <mxCell id="KYZTzPVHc1yOyD898JZF-137" style="edgeStyle=orthogonalEdgeStyle;rounded=0;orthogonalLoop=1;jettySize=auto;html=1;" edge="1" parent="1" source="KYZTzPVHc1yOyD898JZF-55" target="KYZTzPVHc1yOyD898JZF-12">
          <mxGeometry relative="1" as="geometry" />
        </mxCell>
        <mxCell id="KYZTzPVHc1yOyD898JZF-55" value="busy" style="rounded=0;whiteSpace=wrap;html=1;" vertex="1" parent="1">
          <mxGeometry x="488" y="549" width="120" height="60" as="geometry" />
        </mxCell>
        <mxCell id="KYZTzPVHc1yOyD898JZF-133" style="edgeStyle=orthogonalEdgeStyle;rounded=0;orthogonalLoop=1;jettySize=auto;html=1;entryX=0.5;entryY=0;entryDx=0;entryDy=0;" edge="1" parent="1" source="KYZTzPVHc1yOyD898JZF-56" target="KYZTzPVHc1yOyD898JZF-8">
          <mxGeometry relative="1" as="geometry" />
        </mxCell>
        <mxCell id="KYZTzPVHc1yOyD898JZF-140" style="edgeStyle=orthogonalEdgeStyle;rounded=0;orthogonalLoop=1;jettySize=auto;html=1;entryX=0.5;entryY=0;entryDx=0;entryDy=0;" edge="1" parent="1" source="KYZTzPVHc1yOyD898JZF-56" target="KYZTzPVHc1yOyD898JZF-10">
          <mxGeometry relative="1" as="geometry">
            <Array as="points">
              <mxPoint x="165" y="386" />
              <mxPoint x="165" y="228" />
              <mxPoint x="249" y="228" />
            </Array>
          </mxGeometry>
        </mxCell>
        <mxCell id="KYZTzPVHc1yOyD898JZF-56" value="enRx" style="rhombus;whiteSpace=wrap;html=1;" vertex="1" parent="1">
          <mxGeometry x="219" y="356" width="60" height="60" as="geometry" />
        </mxCell>
        <mxCell id="KYZTzPVHc1yOyD898JZF-136" style="edgeStyle=orthogonalEdgeStyle;rounded=0;orthogonalLoop=1;jettySize=auto;html=1;" edge="1" parent="1" source="KYZTzPVHc1yOyD898JZF-61" target="KYZTzPVHc1yOyD898JZF-55">
          <mxGeometry relative="1" as="geometry" />
        </mxCell>
        <mxCell id="KYZTzPVHc1yOyD898JZF-142" style="edgeStyle=orthogonalEdgeStyle;rounded=0;orthogonalLoop=1;jettySize=auto;html=1;entryX=0.5;entryY=0;entryDx=0;entryDy=0;" edge="1" parent="1" source="KYZTzPVHc1yOyD898JZF-61" target="KYZTzPVHc1yOyD898JZF-2">
          <mxGeometry relative="1" as="geometry">
            <Array as="points">
              <mxPoint x="451" y="483" />
              <mxPoint x="451" y="325" />
              <mxPoint x="548" y="325" />
            </Array>
          </mxGeometry>
        </mxCell>
        <mxCell id="KYZTzPVHc1yOyD898JZF-61" value="accept" style="rhombus;whiteSpace=wrap;html=1;" vertex="1" parent="1">
          <mxGeometry x="518" y="453" width="60" height="60" as="geometry" />
        </mxCell>
        <mxCell id="KYZTzPVHc1yOyD898JZF-90" value="VALIDATE" style="text;html=1;strokeColor=none;fillColor=none;align=center;verticalAlign=middle;whiteSpace=wrap;rounded=0;" vertex="1" parent="1">
          <mxGeometry x="691" y="360" width="60" height="30" as="geometry" />
        </mxCell>
        <mxCell id="KYZTzPVHc1yOyD898JZF-93" value="STILL_BUSY" style="text;html=1;strokeColor=none;fillColor=none;align=center;verticalAlign=middle;whiteSpace=wrap;rounded=0;" vertex="1" parent="1">
          <mxGeometry x="694" y="564" width="60" height="30" as="geometry" />
        </mxCell>
        <mxCell id="KYZTzPVHc1yOyD898JZF-144" value="T" style="text;html=1;strokeColor=none;fillColor=none;align=center;verticalAlign=middle;whiteSpace=wrap;rounded=0;" vertex="1" parent="1">
          <mxGeometry x="232" y="200" width="60" height="30" as="geometry" />
        </mxCell>
        <mxCell id="KYZTzPVHc1yOyD898JZF-145" value="T" style="text;html=1;strokeColor=none;fillColor=none;align=center;verticalAlign=middle;whiteSpace=wrap;rounded=0;" vertex="1" parent="1">
          <mxGeometry x="185" y="360" width="60" height="30" as="geometry" />
        </mxCell>
        <mxCell id="KYZTzPVHc1yOyD898JZF-146" value="T" style="text;html=1;strokeColor=none;fillColor=none;align=center;verticalAlign=middle;whiteSpace=wrap;rounded=0;" vertex="1" parent="1">
          <mxGeometry x="532" y="300" width="60" height="30" as="geometry" />
        </mxCell>
        <mxCell id="KYZTzPVHc1yOyD898JZF-147" value="T" style="text;html=1;strokeColor=none;fillColor=none;align=center;verticalAlign=middle;whiteSpace=wrap;rounded=0;" vertex="1" parent="1">
          <mxGeometry x="532" y="505" width="60" height="30" as="geometry" />
        </mxCell>
        <mxCell id="KYZTzPVHc1yOyD898JZF-148" value="T" style="text;html=1;strokeColor=none;fillColor=none;align=center;verticalAlign=middle;whiteSpace=wrap;rounded=0;" vertex="1" parent="1">
          <mxGeometry x="485" y="641" width="60" height="30" as="geometry" />
        </mxCell>
        <mxCell id="KYZTzPVHc1yOyD898JZF-149" value="F" style="text;html=1;strokeColor=none;fillColor=none;align=center;verticalAlign=middle;whiteSpace=wrap;rounded=0;" vertex="1" parent="1">
          <mxGeometry x="185" y="151" width="60" height="30" as="geometry" />
        </mxCell>
        <mxCell id="KYZTzPVHc1yOyD898JZF-150" value="F" style="text;html=1;strokeColor=none;fillColor=none;align=center;verticalAlign=middle;whiteSpace=wrap;rounded=0;" vertex="1" parent="1">
          <mxGeometry x="548" y="248" width="60" height="30" as="geometry" />
        </mxCell>
        <mxCell id="KYZTzPVHc1yOyD898JZF-151" value="F" style="text;html=1;strokeColor=none;fillColor=none;align=center;verticalAlign=middle;whiteSpace=wrap;rounded=0;" vertex="1" parent="1">
          <mxGeometry x="258" y="360" width="60" height="30" as="geometry" />
        </mxCell>
        <mxCell id="KYZTzPVHc1yOyD898JZF-152" value="F" style="text;html=1;strokeColor=none;fillColor=none;align=center;verticalAlign=middle;whiteSpace=wrap;rounded=0;" vertex="1" parent="1">
          <mxGeometry x="488" y="453" width="60" height="30" as="geometry" />
        </mxCell>
        <mxCell id="KYZTzPVHc1yOyD898JZF-153" value="F" style="text;html=1;strokeColor=none;fillColor=none;align=center;verticalAlign=middle;whiteSpace=wrap;rounded=0;" vertex="1" parent="1">
          <mxGeometry x="563" y="634" width="60" height="30" as="geometry" />
        </mxCell>
      </root>
    </mxGraphModel>
  </diagram>
</mxfile>
